<mxfile host="app.diagrams.net" agent="Mozilla/5.0 (Windows NT 10.0; Win64; x64) AppleWebKit/537.36 (KHTML, like Gecko) Chrome/131.0.0.0 Safari/537.36" version="25.0.3">
  <diagram name="Page-1" id="gYPdV5KYoYjTxZCbX4Au">
    <mxGraphModel dx="3088" dy="1907" grid="1" gridSize="10" guides="1" tooltips="1" connect="1" arrows="1" fold="1" page="1" pageScale="1" pageWidth="1654" pageHeight="1169" math="0" shadow="0">
      <root>
        <mxCell id="0" />
        <mxCell id="1" parent="0" />
        <mxCell id="qkAYrCaB-duEuZqhV6VB-1" value="&lt;font&gt;0123456789012345678901234567890123456789012345678901234567890123456789012345678901234567890123456789012345678901234567890123456789012&lt;/font&gt;" style="text;html=1;align=left;verticalAlign=middle;resizable=0;points=[];autosize=1;strokeColor=none;fillColor=default;fontFamily=Lucida Console;fontSize=14;" parent="1" vertex="1">
          <mxGeometry x="10" y="-20" width="1150" height="30" as="geometry" />
        </mxCell>
        <mxCell id="qkAYrCaB-duEuZqhV6VB-2" value="&lt;font&gt;0&amp;nbsp; &amp;nbsp; &amp;nbsp; &amp;nbsp; &amp;nbsp;10&amp;nbsp; &amp;nbsp; &amp;nbsp; &amp;nbsp; 20&amp;nbsp; &amp;nbsp; &amp;nbsp; &amp;nbsp; 30&amp;nbsp; &amp;nbsp; &amp;nbsp; &amp;nbsp; 40&amp;nbsp; &amp;nbsp; &amp;nbsp; &amp;nbsp; 50&amp;nbsp; &amp;nbsp; &amp;nbsp; &amp;nbsp; 60&amp;nbsp; &amp;nbsp; &amp;nbsp; &amp;nbsp; 70&amp;nbsp; &amp;nbsp; &amp;nbsp; &amp;nbsp; 80&amp;nbsp; &amp;nbsp; &amp;nbsp; &amp;nbsp; 90&amp;nbsp; &amp;nbsp; &amp;nbsp; &amp;nbsp; 100&amp;nbsp; &amp;nbsp; &amp;nbsp; &amp;nbsp;110&amp;nbsp; &amp;nbsp; &amp;nbsp; &amp;nbsp;120&amp;nbsp; &amp;nbsp; &amp;nbsp; &amp;nbsp; &amp;nbsp;132&amp;nbsp;&lt;/font&gt;" style="text;html=1;align=left;verticalAlign=middle;resizable=0;points=[];autosize=1;strokeColor=none;fillColor=default;fontFamily=Lucida Console;fontSize=14;" parent="1" vertex="1">
          <mxGeometry x="10" y="-39" width="1170" height="30" as="geometry" />
        </mxCell>
        <mxCell id="0JCC86L8l436ZXqpCiF8-2" value="&lt;div&gt;&lt;br&gt;&lt;/div&gt;&lt;div&gt;&lt;br&gt;&lt;/div&gt;&lt;div&gt;&lt;br&gt;&lt;/div&gt;&lt;div&gt;&lt;br&gt;&lt;/div&gt;&lt;div&gt;&lt;br&gt;&lt;/div&gt;&lt;div&gt;&lt;br&gt;&lt;/div&gt;&lt;div&gt;&lt;br&gt;&lt;/div&gt;&lt;div&gt;&lt;br&gt;&lt;/div&gt;&lt;div&gt;&lt;br&gt;&lt;/div&gt;&lt;br&gt;&lt;div&gt;10&lt;/div&gt;&lt;div&gt;&lt;br&gt;&lt;/div&gt;&lt;div&gt;&lt;br&gt;&lt;/div&gt;&lt;div&gt;&lt;br&gt;&lt;/div&gt;&lt;div&gt;&lt;br&gt;&lt;/div&gt;&lt;div&gt;&lt;br&gt;&lt;/div&gt;&lt;div&gt;&lt;br&gt;&lt;/div&gt;&lt;div&gt;&lt;br&gt;&lt;/div&gt;&lt;div&gt;&lt;br&gt;&lt;/div&gt;&lt;div&gt;&lt;br&gt;&lt;/div&gt;&lt;div&gt;20&lt;/div&gt;&lt;div&gt;&lt;br&gt;&lt;/div&gt;&lt;div&gt;&lt;br&gt;&lt;/div&gt;&lt;div&gt;&lt;br&gt;&lt;/div&gt;&lt;div&gt;&lt;br&gt;&lt;/div&gt;&lt;div&gt;&lt;br&gt;&lt;/div&gt;&lt;div&gt;&lt;br&gt;&lt;/div&gt;&lt;div&gt;&lt;br&gt;&lt;/div&gt;&lt;div&gt;&lt;br&gt;&lt;/div&gt;&lt;div&gt;&lt;br&gt;&lt;/div&gt;&lt;div&gt;30&lt;/div&gt;&lt;div&gt;&lt;br&gt;&lt;/div&gt;&lt;div&gt;&lt;br&gt;&lt;/div&gt;&lt;div&gt;&lt;br&gt;&lt;/div&gt;&lt;div&gt;&lt;br&gt;&lt;/div&gt;&lt;div&gt;&lt;br&gt;&lt;/div&gt;&lt;div&gt;&lt;br&gt;&lt;/div&gt;&lt;div&gt;&lt;br&gt;&lt;/div&gt;&lt;div&gt;&lt;br&gt;&lt;/div&gt;&lt;div&gt;&lt;br&gt;&lt;/div&gt;&lt;div&gt;40&lt;/div&gt;&lt;div&gt;&lt;br&gt;&lt;/div&gt;&lt;div&gt;&lt;br&gt;&lt;/div&gt;&lt;div&gt;43&lt;/div&gt;&lt;div&gt;&lt;br&gt;&lt;/div&gt;&lt;div&gt;&lt;br&gt;&lt;/div&gt;&lt;div&gt;&lt;br&gt;&lt;/div&gt;" style="text;whiteSpace=wrap;html=1;align=right;fontFamily=Lucida Console;fontSize=14;" parent="1" vertex="1">
          <mxGeometry x="-18" y="-19" width="24" height="240" as="geometry" />
        </mxCell>
        <mxCell id="qkAYrCaB-duEuZqhV6VB-3" value="0&lt;div&gt;1&lt;/div&gt;&lt;div&gt;2&lt;/div&gt;&lt;div&gt;3&lt;/div&gt;&lt;div&gt;4&lt;/div&gt;&lt;div&gt;5&lt;/div&gt;&lt;div&gt;6&lt;/div&gt;&lt;div&gt;7&lt;/div&gt;&lt;div&gt;8&lt;/div&gt;&lt;div&gt;9&lt;/div&gt;&lt;div&gt;0&lt;/div&gt;&lt;div&gt;1&lt;/div&gt;&lt;div&gt;2&lt;/div&gt;&lt;div&gt;3&lt;/div&gt;&lt;div&gt;4&lt;/div&gt;&lt;div&gt;5&lt;/div&gt;&lt;div&gt;6&lt;/div&gt;&lt;div&gt;7&lt;/div&gt;&lt;div&gt;8&lt;/div&gt;&lt;div&gt;9&lt;/div&gt;&lt;div&gt;0&lt;/div&gt;&lt;div&gt;1&lt;/div&gt;&lt;div&gt;2&lt;/div&gt;&lt;div&gt;3&lt;/div&gt;&lt;div&gt;4&lt;/div&gt;&lt;div&gt;5&lt;/div&gt;&lt;div&gt;6&lt;/div&gt;&lt;div&gt;7&lt;/div&gt;&lt;div&gt;8&lt;/div&gt;&lt;div&gt;9&lt;/div&gt;&lt;div&gt;0&lt;/div&gt;&lt;div&gt;1&lt;/div&gt;&lt;div&gt;2&lt;/div&gt;&lt;div&gt;3&lt;/div&gt;&lt;div&gt;4&lt;/div&gt;&lt;div&gt;5&lt;/div&gt;&lt;div&gt;6&lt;/div&gt;&lt;div&gt;7&lt;/div&gt;&lt;div&gt;8&lt;/div&gt;&lt;div&gt;9&lt;/div&gt;&lt;div&gt;0&lt;/div&gt;&lt;div&gt;1&lt;/div&gt;&lt;div&gt;2&lt;/div&gt;&lt;div&gt;3&lt;/div&gt;&lt;div&gt;&lt;br&gt;&lt;/div&gt;&lt;div&gt;&lt;br&gt;&lt;/div&gt;" style="text;whiteSpace=wrap;html=1;fontFamily=Lucida Console;fontSize=14;" parent="1" vertex="1">
          <mxGeometry x="10" y="-19" width="24" height="240" as="geometry" />
        </mxCell>
        <mxCell id="LSzqvkUK99cfRbp6Mw0R-84" value="&lt;div&gt;&lt;font color=&quot;#f8cecc&quot;&gt;BLK&lt;/font&gt;&lt;/div&gt;&lt;div&gt;&lt;font color=&quot;#ea6b66&quot;&gt;RED&lt;/font&gt;&lt;/div&gt;&lt;div&gt;&lt;span style=&quot;color: rgb(0, 204, 0);&quot;&gt;GRN&lt;/span&gt;&lt;/div&gt;&lt;div&gt;&lt;font color=&quot;#495411&quot;&gt;YEL&lt;/font&gt;&lt;/div&gt;&lt;div&gt;&lt;font color=&quot;#3399ff&quot;&gt;BLU&lt;/font&gt;&lt;/div&gt;&lt;div&gt;&lt;font color=&quot;#ff33ff&quot;&gt;MAG&lt;/font&gt;&lt;/div&gt;&lt;div&gt;&lt;font color=&quot;#004c99&quot;&gt;CYN&lt;/font&gt;&lt;/div&gt;&lt;div&gt;WHT&lt;/div&gt;&lt;div&gt;&lt;br&gt;&lt;/div&gt;" style="text;html=1;align=left;verticalAlign=middle;resizable=0;points=[];autosize=1;strokeColor=none;fillColor=default;fontFamily=Lucida Console;fontSize=14;" parent="1" vertex="1">
          <mxGeometry x="-290" y="505" width="50" height="160" as="geometry" />
        </mxCell>
        <mxCell id="LSzqvkUK99cfRbp6Mw0R-85" value="&lt;div&gt;&lt;font color=&quot;#f8cecc&quot;&gt;BLK&lt;/font&gt;&lt;/div&gt;&lt;div&gt;&lt;font color=&quot;#ea6b66&quot;&gt;ERROR&lt;/font&gt;&lt;/div&gt;&lt;div&gt;&lt;span style=&quot;color: rgb(0, 204, 0);&quot;&gt;RUNNING/ALL GOOD&lt;/span&gt;&lt;/div&gt;&lt;div&gt;&lt;font color=&quot;#495411&quot;&gt;WARNING&lt;/font&gt;&lt;/div&gt;&lt;div&gt;&lt;font color=&quot;#3399ff&quot;&gt;NORMAL TEXT&lt;/font&gt;&lt;/div&gt;&lt;div&gt;&lt;font color=&quot;#ff33ff&quot;&gt;HEADINGS&lt;/font&gt;&lt;/div&gt;&lt;div&gt;&lt;span style=&quot;background-color: initial;&quot;&gt;&lt;font color=&quot;#004c99&quot;&gt;SUBHEADINGS&lt;/font&gt;&lt;/span&gt;&lt;/div&gt;&lt;div&gt;&lt;span style=&quot;background-color: initial;&quot;&gt;FRAMES&lt;/span&gt;&lt;/div&gt;&lt;div&gt;&lt;br&gt;&lt;/div&gt;" style="text;html=1;align=left;verticalAlign=middle;resizable=0;points=[];autosize=1;strokeColor=none;fillColor=default;fontFamily=Lucida Console;fontSize=14;" parent="1" vertex="1">
          <mxGeometry x="-190" y="520" width="160" height="160" as="geometry" />
        </mxCell>
        <mxCell id="oLKlljd090616Nfrw5Nb-1" value="" style="swimlane;startSize=0;fontFamily=Lucida Console;fontSize=14;" parent="1" vertex="1">
          <mxGeometry x="20" y="-1" width="1130" height="720" as="geometry" />
        </mxCell>
        <mxCell id="oLKlljd090616Nfrw5Nb-9" value="&lt;font color=&quot;#3399ff&quot;&gt;&lt;b&gt;M-TEK&lt;/b&gt;&amp;nbsp; &amp;nbsp;&lt;/font&gt;&lt;font color=&quot;#ff33ff&quot;&gt;&lt;b&gt;Radar Rotator Sub-System&amp;nbsp; &amp;nbsp;&lt;/b&gt;&lt;/font&gt;2024-12-01&amp;nbsp; &amp;nbsp;00:00:00&amp;nbsp; &amp;nbsp;R&amp;nbsp; &amp;nbsp;⚪&amp;nbsp; &amp;nbsp;30.0 rpm&amp;nbsp; &amp;nbsp; &amp;nbsp; &amp;nbsp; &amp;nbsp; &amp;nbsp; &amp;nbsp; &amp;nbsp; &amp;nbsp; &amp;nbsp; &amp;nbsp; &amp;nbsp; &amp;nbsp; &amp;nbsp; &amp;nbsp; &amp;nbsp; &amp;nbsp; &amp;nbsp; &amp;nbsp; &amp;nbsp; ������&amp;nbsp; &amp;nbsp;&lt;span style=&quot;color: rgb(0, 204, 0);&quot;&gt;✔&amp;nbsp; &amp;nbsp;&lt;/span&gt;&lt;span style=&quot;background-color: initial;&quot;&gt;UART&lt;/span&gt;" style="text;html=1;align=left;verticalAlign=middle;resizable=0;points=[];autosize=1;strokeColor=none;fillColor=default;labelBackgroundColor=none;fontFamily=Lucida Console;fontSize=14;" parent="oLKlljd090616Nfrw5Nb-1" vertex="1">
          <mxGeometry y="4" width="1130" height="30" as="geometry" />
        </mxCell>
        <mxCell id="oLKlljd090616Nfrw5Nb-10" value="&lt;font color=&quot;#3399ff&quot;&gt;Message line:...&lt;/font&gt;" style="text;html=1;align=left;verticalAlign=middle;resizable=0;points=[];autosize=1;strokeColor=none;fillColor=default;fontFamily=Lucida Console;fontSize=14;" parent="oLKlljd090616Nfrw5Nb-1" vertex="1">
          <mxGeometry y="30" width="160" height="30" as="geometry" />
        </mxCell>
        <mxCell id="USdj_I0CaCp1iJVfZblM-9" value="&#xa;" style="swimlane;startSize=0;fontFamily=Lucida Console;fontSize=14;" parent="oLKlljd090616Nfrw5Nb-1" vertex="1">
          <mxGeometry x="-10" y="29" width="1120" height="30" as="geometry" />
        </mxCell>
        <mxCell id="USdj_I0CaCp1iJVfZblM-36" value="&#xa;" style="swimlane;startSize=0;fontFamily=Lucida Console;fontSize=14;" parent="oLKlljd090616Nfrw5Nb-1" vertex="1">
          <mxGeometry x="-10" width="1120" height="30" as="geometry" />
        </mxCell>
        <mxCell id="USdj_I0CaCp1iJVfZblM-37" value="&#xa;" style="swimlane;startSize=0;fontFamily=Lucida Console;fontSize=14;" parent="oLKlljd090616Nfrw5Nb-1" vertex="1">
          <mxGeometry x="13" y="650" width="407" height="56" as="geometry" />
        </mxCell>
        <mxCell id="USdj_I0CaCp1iJVfZblM-40" value="&lt;span style=&quot;color: rgb(51, 153, 255);&quot;&gt;Lo[G]in / out&amp;nbsp; &amp;nbsp;|&amp;nbsp; &amp;nbsp;&lt;/span&gt;&lt;span style=&quot;color: rgb(51, 153, 255); background-color: initial;&quot;&gt;Password:&lt;/span&gt;" style="text;html=1;align=left;verticalAlign=middle;resizable=0;points=[];autosize=1;strokeColor=none;fillColor=default;fontFamily=Lucida Console;fontSize=14;" parent="USdj_I0CaCp1iJVfZblM-37" vertex="1">
          <mxGeometry y="16" width="270" height="30" as="geometry" />
        </mxCell>
        <mxCell id="ittD8aQFB4zh-7gGsS9k-8" value="&#xa;" style="swimlane;startSize=0;fontFamily=Lucida Console;fontSize=14;" parent="oLKlljd090616Nfrw5Nb-1" vertex="1">
          <mxGeometry x="14" y="71" width="305" height="280" as="geometry" />
        </mxCell>
        <mxCell id="ittD8aQFB4zh-7gGsS9k-7" value="&lt;b style=&quot;color: rgb(255, 51, 255);&quot;&gt;&lt;font&gt;[L]egend&amp;nbsp;&lt;/font&gt;&lt;/b&gt;&lt;div&gt;&lt;font&gt;&lt;br&gt;&lt;/font&gt;&lt;/div&gt;&lt;div&gt;&lt;font&gt;Mode:&amp;nbsp; R&amp;nbsp; &amp;nbsp; &amp;nbsp; &amp;nbsp; &amp;nbsp; &amp;nbsp;Rate&lt;/font&gt;&lt;/div&gt;&lt;div&gt;&lt;font&gt;&amp;nbsp; &amp;nbsp; &amp;nbsp; &amp;nbsp;θ&amp;nbsp; &amp;nbsp; &amp;nbsp; &amp;nbsp; &amp;nbsp; &amp;nbsp;Position&lt;/font&gt;&lt;/div&gt;&lt;div&gt;&lt;font&gt;&amp;nbsp; &amp;nbsp; &amp;nbsp; &amp;nbsp;Tq&amp;nbsp; &amp;nbsp; &amp;nbsp; &amp;nbsp; &amp;nbsp; Torque&lt;/font&gt;&lt;/div&gt;&lt;div&gt;&lt;font&gt;&amp;nbsp;&lt;font color=&quot;#ff33ff&quot;&gt;&lt;b&gt;&lt;br&gt;&lt;/b&gt;&lt;/font&gt;&lt;/font&gt;&lt;div&gt;&lt;font&gt;Control mode:&amp;nbsp; &amp;nbsp; &amp;nbsp; ⚪&amp;nbsp; Open-loop&amp;nbsp;&lt;b style=&quot;color: rgb(255, 51, 255);&quot;&gt;&lt;/b&gt;&lt;/font&gt;&lt;/div&gt;&lt;div&gt;&lt;span style=&quot;font-family: Helvetica; text-wrap-mode: wrap;&quot;&gt;&lt;font&gt;&amp;nbsp; &amp;nbsp; &amp;nbsp; &amp;nbsp; &amp;nbsp; &amp;nbsp; &amp;nbsp; &amp;nbsp; &amp;nbsp; &amp;nbsp; &amp;nbsp; &amp;nbsp; &amp;nbsp; &amp;nbsp; &amp;nbsp; &amp;nbsp; &amp;nbsp; &amp;nbsp; &amp;nbsp; &amp;nbsp; &amp;nbsp;⚫&amp;nbsp; &amp;nbsp; Closed-loop&lt;/font&gt;&lt;/span&gt;&lt;/div&gt;&lt;div&gt;&lt;br&gt;&lt;/div&gt;&lt;/div&gt;&lt;div&gt;All comms:&amp;nbsp; &amp;nbsp; &amp;nbsp; &amp;nbsp; &amp;nbsp;&lt;span style=&quot;background-color: initial;&quot;&gt;&lt;font color=&quot;#00cc00&quot;&gt;✔&lt;/font&gt;&lt;/span&gt;&lt;span style=&quot;background-color: initial;&quot;&gt;&amp;nbsp; &amp;nbsp;OK&lt;/span&gt;&lt;/div&gt;&lt;div&gt;&amp;nbsp; &amp;nbsp; &amp;nbsp; &amp;nbsp; &amp;nbsp; &amp;nbsp; &amp;nbsp; &amp;nbsp; &amp;nbsp; &amp;nbsp;&lt;span style=&quot;background-color: initial;&quot;&gt;&lt;font color=&quot;#ea6b66&quot;&gt;✖&lt;/font&gt;&lt;/span&gt;&lt;span style=&quot;background-color: initial;&quot;&gt;&amp;nbsp; &amp;nbsp;Not OK&lt;/span&gt;&lt;/div&gt;&lt;div&gt;&lt;br&gt;&lt;/div&gt;&lt;div&gt;Logged in:&amp;nbsp; &amp;nbsp; &amp;nbsp; &amp;nbsp; &amp;nbsp;������&lt;/div&gt;&lt;div&gt;Not logged in:&amp;nbsp; &amp;nbsp;&lt;/div&gt;" style="text;html=1;align=left;verticalAlign=middle;resizable=0;points=[];autosize=1;strokeColor=none;fillColor=default;fontFamily=Lucida Console;fontSize=14;" parent="ittD8aQFB4zh-7gGsS9k-8" vertex="1">
          <mxGeometry y="20" width="300" height="250" as="geometry" />
        </mxCell>
      </root>
    </mxGraphModel>
  </diagram>
</mxfile>
